<?xml version="1.0" encoding="utf-8"?>
<!-- Generator: Adobe Illustrator 19.0.0, SVG Export Plug-In . SVG Version: 6.00 Build 0)  -->
<svg version="1.1" id="Capa_1" xmlns="http://www.w3.org/2000/svg" xmlns:xlink="http://www.w3.org/1999/xlink" x="0px" y="0px"
	 viewBox="-284 412 26.1 17.9" style="enable-background:new -284 412 26.1 17.9;" xml:space="preserve">
<style type="text/css">
	.st0{fill:#FFDD5C;}
</style>
<path class="st0" d="M-259.1,422.2l-8.6-8.9c-0.8-0.8-1.7-1.2-2.7-1.2V412h-0.5h-0.1c-1.1,0-2.1,0.5-2.9,1.3l-8.8,8.9
	c-1.6,1.6-1.6,4.2,0,5.8l0.7,0.7c0.8,0.8,1.8,1.2,2.9,1.2s2.1-0.4,2.9-1.2l5.3-5.3l5.3,5.3c0.8,0.8,1.8,1.2,2.9,1.2s2.1-0.4,2.9-1.2
	l0.7-0.7C-257.5,426.4-257.5,423.8-259.1,422.2z M-260.5,426.5l-0.7,0.7c-0.4,0.4-0.9,0.6-1.5,0.6s-1.1-0.2-1.5-0.6l-6.7-6.7
	l-6.7,6.7c-0.4,0.4-0.9,0.6-1.5,0.6c-0.5,0-1.1-0.2-1.5-0.6l-0.7-0.7c-0.8-0.8-0.8-2.1,0-2.9l8.8-8.8c0.4-0.4,0.9-0.6,1.5-0.6h0.1
	h0.1c0.5,0,1.1,0.2,1.5,0.6l8.8,8.8C-259.8,424.4-259.8,425.7-260.5,426.5z"/>
</svg>
